<svg xmlns="http://www.w3.org/2000/svg" viewBox="0 0 1200 260" width="1200" height="260" preserveAspectRatio="none">
<path d="M0.0 140.0 L10.0 145.5 L20.0 150.9 L30.0 156.2 L40.0 161.3 L50.0 166.1 L60.0 170.6 L70.0 174.8 L80.0 178.5 L90.0 181.8 L100.0 184.6 L110.0 186.8 L120.0 188.4 L130.0 189.5 L140.0 190.0 L150.0 189.8 L160.0 189.1 L170.0 187.8 L180.0 185.9 L190.0 183.4 L200.0 180.5 L210.0 177.0 L220.0 173.1 L230.0 168.8 L240.0 164.1 L250.0 159.1 L260.0 153.9 L270.0 148.6 L280.0 143.1 L290.0 137.6 L300.0 132.2 L310.0 126.8 L320.0 121.6 L330.0 116.6 L340.0 111.9 L350.0 107.5 L360.0 103.6 L370.0 100.0 L380.0 97.0 L390.0 94.4 L400.0 92.4 L410.0 91.0 L420.0 90.2 L430.0 90.0 L440.0 90.4 L450.0 91.4 L460.0 93.0 L470.0 95.1 L480.0 97.8 L490.0 101.0 L500.0 104.6 L510.0 108.7 L520.0 113.2 L530.0 118.0 L540.0 123.1 L550.0 128.3 L560.0 133.7 L570.0 139.2 L580.0 144.7 L590.0 150.1 L600.0 155.5 L610.0 160.6 L620.0 165.5 L630.0 170.0 L640.0 174.2 L650.0 178.0 L660.0 181.4 L670.0 184.2 L680.0 186.5 L690.0 188.2 L700.0 189.4 L710.0 189.9 L720.0 189.9 L730.0 189.3 L740.0 188.0 L750.0 186.2 L760.0 183.8 L770.0 180.9 L780.0 177.5 L790.0 173.7 L800.0 169.4 L810.0 164.8 L820.0 159.9 L830.0 154.7 L840.0 149.4 L850.0 143.9 L860.0 138.4 L870.0 133.0 L880.0 127.6 L890.0 122.3 L900.0 117.3 L910.0 112.5 L920.0 108.1 L930.0 104.1 L940.0 100.5 L950.0 97.4 L960.0 94.8 L970.0 92.7 L980.0 91.2 L990.0 90.3 L1000.0 90.0 L1010.0 90.3 L1020.0 91.2 L1030.0 92.7 L1040.0 94.8 L1050.0 97.4 L1060.0 100.5 L1070.0 104.1 L1080.0 108.1 L1090.0 112.5 L1100.0 117.3 L1110.0 122.3 L1120.0 127.6 L1130.0 133.0 L1140.0 138.4 L1150.0 143.9 L1160.0 149.4 L1170.0 154.7 L1180.0 159.9 L1190.0 164.8 L1200.0 169.4" fill="none" stroke="#16230A" stroke-width="54" stroke-linecap="round" stroke-linejoin="round" opacity="0.97"></path>
<path d="M0.0 151.8 L10.0 157.1 L20.0 162.1 L30.0 166.7 L40.0 170.9 L50.0 174.7 L60.0 178.0 L70.0 180.8 L80.0 183.0 L90.0 184.6 L100.0 185.6 L110.0 186.0 L120.0 185.7 L130.0 184.9 L140.0 183.4 L150.0 181.3 L160.0 178.6 L170.0 175.4 L180.0 171.7 L190.0 167.6 L200.0 163.0 L210.0 158.1 L220.0 152.9 L230.0 147.5 L240.0 141.9 L250.0 136.2 L260.0 130.5 L270.0 124.8 L280.0 119.3 L290.0 113.9 L300.0 108.7 L310.0 103.9 L320.0 99.4 L330.0 95.4 L340.0 91.8 L350.0 88.7 L360.0 86.2 L370.0 84.2 L380.0 82.9 L390.0 82.1 L400.0 82.0 L410.0 82.6 L420.0 83.7 L430.0 85.4 L440.0 87.8 L450.0 90.7 L460.0 94.1 L470.0 98.0 L480.0 102.3 L490.0 107.0 L500.0 112.1 L510.0 117.4 L520.0 122.9 L530.0 128.5 L540.0 134.2 L550.0 139.9 L560.0 145.6 L570.0 151.1 L580.0 156.3 L590.0 161.4 L600.0 166.1 L610.0 170.4 L620.0 174.2 L630.0 177.6 L640.0 180.4 L650.0 182.7 L660.0 184.4 L670.0 185.5 L680.0 186.0 L690.0 185.8 L700.0 185.0 L710.0 183.6 L720.0 181.6 L730.0 179.1 L740.0 175.9 L750.0 172.3 L760.0 168.2 L770.0 163.7 L780.0 158.8 L790.0 153.7 L800.0 148.3 L810.0 142.7 L820.0 137.0 L830.0 131.3 L840.0 125.6 L850.0 120.1 L860.0 114.6 L870.0 109.5 L880.0 104.6 L890.0 100.1 L900.0 95.9 L910.0 92.3 L920.0 89.1 L930.0 86.5 L940.0 84.5 L950.0 83.0 L960.0 82.2 L970.0 82.0 L980.0 82.4 L990.0 83.5 L1000.0 85.2 L1010.0 87.4 L1020.0 90.2 L1030.0 93.6 L1040.0 97.4 L1050.0 101.7 L1060.0 106.3 L1070.0 111.3 L1080.0 116.6 L1090.0 122.1 L1100.0 127.7 L1110.0 133.4 L1120.0 139.1 L1130.0 144.8 L1140.0 150.3 L1150.0 155.6 L1160.0 160.7 L1170.0 165.4 L1180.0 169.8 L1190.0 173.7 L1200.0 177.1" fill="none" stroke="#2A3F0D" stroke-width="46" stroke-linecap="round" stroke-linejoin="round" opacity="0.97"></path>
<path d="M0.0 162.8 L10.0 167.1 L20.0 171.0 L30.0 174.3 L40.0 177.1 L50.0 179.2 L60.0 180.8 L70.0 181.7 L80.0 182.0 L90.0 181.6 L100.0 180.6 L110.0 178.9 L120.0 176.7 L130.0 173.8 L140.0 170.4 L150.0 166.4 L160.0 162.1 L170.0 157.2 L180.0 152.1 L190.0 146.6 L200.0 141.0 L210.0 135.1 L220.0 129.2 L230.0 123.3 L240.0 117.4 L250.0 111.7 L260.0 106.1 L270.0 100.8 L280.0 95.9 L290.0 91.3 L300.0 87.2 L310.0 83.5 L320.0 80.5 L330.0 77.9 L340.0 76.0 L350.0 74.7 L360.0 74.1 L370.0 74.1 L380.0 74.7 L390.0 76.0 L400.0 78.0 L410.0 80.5 L420.0 83.6 L430.0 87.3 L440.0 91.4 L450.0 96.0 L460.0 100.9 L470.0 106.2 L480.0 111.8 L490.0 117.5 L500.0 123.4 L510.0 129.3 L520.0 135.2 L530.0 141.1 L540.0 146.7 L550.0 152.2 L560.0 157.3 L570.0 162.1 L580.0 166.5 L590.0 170.4 L600.0 173.8 L610.0 176.7 L620.0 179.0 L630.0 180.6 L640.0 181.6 L650.0 182.0 L660.0 181.7 L670.0 180.8 L680.0 179.2 L690.0 177.0 L700.0 174.2 L710.0 170.9 L720.0 167.0 L730.0 162.7 L740.0 158.0 L750.0 152.8 L760.0 147.4 L770.0 141.8 L780.0 136.0 L790.0 130.1 L800.0 124.1 L810.0 118.2 L820.0 112.5 L830.0 106.9 L840.0 101.6 L850.0 96.6 L860.0 91.9 L870.0 87.7 L880.0 84.0 L890.0 80.9 L900.0 78.3 L910.0 76.2 L920.0 74.9 L930.0 74.1 L940.0 74.0 L950.0 74.6 L960.0 75.8 L970.0 77.7 L980.0 80.1 L990.0 83.1 L1000.0 86.7 L1010.0 90.8 L1020.0 95.3 L1030.0 100.2 L1040.0 105.4 L1050.0 111.0 L1060.0 116.7 L1070.0 122.5 L1080.0 128.5 L1090.0 134.4 L1100.0 140.2 L1110.0 145.9 L1120.0 151.4 L1130.0 156.6 L1140.0 161.5 L1150.0 165.9 L1160.0 169.9 L1170.0 173.4 L1180.0 176.3 L1190.0 178.7 L1200.0 180.4" fill="none" stroke="#3E5A02" stroke-width="40" stroke-linecap="round" stroke-linejoin="round" opacity="0.97"></path>
<path d="M0.0 169.7 L10.0 172.4 L20.0 174.5 L30.0 176.0 L40.0 176.8 L50.0 177.0 L60.0 176.5 L70.0 175.3 L80.0 173.5 L90.0 171.1 L100.0 168.0 L110.0 164.5 L120.0 160.4 L130.0 155.8 L140.0 150.9 L150.0 145.5 L160.0 139.9 L170.0 134.1 L180.0 128.2 L190.0 122.1 L200.0 116.1 L210.0 110.1 L220.0 104.3 L230.0 98.7 L240.0 93.4 L250.0 88.4 L260.0 83.8 L270.0 79.7 L280.0 76.1 L290.0 73.1 L300.0 70.6 L310.0 68.8 L320.0 67.6 L330.0 67.0 L340.0 67.2 L350.0 67.9 L360.0 69.4 L370.0 71.5 L380.0 74.2 L390.0 77.4 L400.0 81.2 L410.0 85.5 L420.0 90.3 L430.0 95.4 L440.0 100.8 L450.0 106.5 L460.0 112.4 L470.0 118.4 L480.0 124.5 L490.0 130.5 L500.0 136.4 L510.0 142.1 L520.0 147.6 L530.0 152.8 L540.0 157.6 L550.0 162.0 L560.0 165.9 L570.0 169.3 L580.0 172.1 L590.0 174.3 L600.0 175.8 L610.0 176.7 L620.0 177.0 L630.0 176.6 L640.0 175.5 L650.0 173.8 L660.0 171.5 L670.0 168.5 L680.0 165.0 L690.0 161.0 L700.0 156.5 L710.0 151.6 L720.0 146.3 L730.0 140.8 L740.0 135.0 L750.0 129.0 L760.0 123.0 L770.0 117.0 L780.0 111.0 L790.0 105.1 L800.0 99.5 L810.0 94.1 L820.0 89.1 L830.0 84.4 L840.0 80.3 L850.0 76.6 L860.0 73.5 L870.0 70.9 L880.0 69.0 L890.0 67.7 L900.0 67.1 L910.0 67.1 L920.0 67.8 L930.0 69.1 L940.0 71.1 L950.0 73.7 L960.0 76.9 L970.0 80.7 L980.0 84.9 L990.0 89.6 L1000.0 94.6 L1010.0 100.0 L1020.0 105.7 L1030.0 111.6 L1040.0 117.6 L1050.0 123.6 L1060.0 129.6 L1070.0 135.5 L1080.0 141.3 L1090.0 146.9 L1100.0 152.1 L1110.0 157.0 L1120.0 161.4 L1130.0 165.4 L1140.0 168.8 L1150.0 171.7 L1160.0 174.0 L1170.0 175.6 L1180.0 176.7 L1190.0 177.0 L1200.0 176.7" fill="none" stroke="#5F8604" stroke-width="30" stroke-linecap="round" stroke-linejoin="round" opacity="0.97"></path>
<path d="M0.0 172.2 L10.0 172.9 L20.0 172.9 L30.0 172.3 L40.0 171.0 L50.0 169.1 L60.0 166.6 L70.0 163.4 L80.0 159.8 L90.0 155.6 L100.0 150.9 L110.0 145.9 L120.0 140.5 L130.0 134.9 L140.0 129.0 L150.0 123.1 L160.0 117.0 L170.0 111.0 L180.0 105.1 L190.0 99.3 L200.0 93.7 L210.0 88.4 L220.0 83.5 L230.0 79.0 L240.0 75.0 L250.0 71.5 L260.0 68.6 L270.0 66.2 L280.0 64.5 L290.0 63.4 L300.0 63.0 L310.0 63.3 L320.0 64.2 L330.0 65.7 L340.0 67.9 L350.0 70.7 L360.0 74.1 L370.0 78.0 L380.0 82.4 L390.0 87.2 L400.0 92.4 L410.0 97.9 L420.0 103.6 L430.0 109.5 L440.0 115.5 L450.0 121.6 L460.0 127.6 L470.0 133.4 L480.0 139.1 L490.0 144.6 L500.0 149.7 L510.0 154.5 L520.0 158.8 L530.0 162.6 L540.0 165.8 L550.0 168.5 L560.0 170.6 L570.0 172.0 L580.0 172.8 L590.0 173.0 L600.0 172.4 L610.0 171.2 L620.0 169.4 L630.0 167.0 L640.0 163.9 L650.0 160.3 L660.0 156.2 L670.0 151.6 L680.0 146.6 L690.0 141.3 L700.0 135.7 L710.0 129.9 L720.0 123.9 L730.0 117.9 L740.0 111.9 L750.0 105.9 L760.0 100.1 L770.0 94.5 L780.0 89.2 L790.0 84.2 L800.0 79.6 L810.0 75.6 L820.0 72.0 L830.0 68.9 L840.0 66.5 L850.0 64.7 L860.0 63.5 L870.0 63.0 L880.0 63.2 L890.0 64.0 L900.0 65.5 L910.0 67.6 L920.0 70.3 L930.0 73.6 L940.0 77.4 L950.0 81.7 L960.0 86.5 L970.0 91.6 L980.0 97.1 L990.0 102.8 L1000.0 108.7 L1010.0 114.7 L1020.0 120.7 L1030.0 126.7 L1040.0 132.6 L1050.0 138.3 L1060.0 143.8 L1070.0 149.0 L1080.0 153.8 L1090.0 158.2 L1100.0 162.0 L1110.0 165.4 L1120.0 168.2 L1130.0 170.3 L1140.0 171.9 L1150.0 172.8 L1160.0 173.0 L1170.0 172.6 L1180.0 171.5 L1190.0 169.7 L1200.0 167.3" fill="none" stroke="#7FA04A" stroke-width="20" stroke-linecap="round" stroke-linejoin="round" opacity="0.97"></path>
<path d="M0.0 170.1 L10.0 168.7 L20.0 166.6 L30.0 163.9 L40.0 160.6 L50.0 156.8 L60.0 152.4 L70.0 147.6 L80.0 142.4 L90.0 136.9 L100.0 131.1 L110.0 125.1 L120.0 119.0 L130.0 112.9 L140.0 106.8 L150.0 100.7 L160.0 94.9 L170.0 89.3 L180.0 84.0 L190.0 79.0 L200.0 74.5 L210.0 70.5 L220.0 67.1 L230.0 64.2 L240.0 61.9 L250.0 60.3 L260.0 59.3 L270.0 59.0 L280.0 59.4 L290.0 60.4 L300.0 62.1 L310.0 64.5 L320.0 67.4 L330.0 71.0 L340.0 75.0 L350.0 79.6 L360.0 84.6 L370.0 89.9 L380.0 95.5 L390.0 101.4 L400.0 107.5 L410.0 113.6 L420.0 119.8 L430.0 125.8 L440.0 131.8 L450.0 137.6 L460.0 143.1 L470.0 148.2 L480.0 153.0 L490.0 157.2 L500.0 161.0 L510.0 164.2 L520.0 166.9 L530.0 168.9 L540.0 170.2 L550.0 170.9 L560.0 170.9 L570.0 170.3 L580.0 168.9 L590.0 166.9 L600.0 164.3 L610.0 161.1 L620.0 157.3 L630.0 153.1 L640.0 148.3 L650.0 143.2 L660.0 137.7 L670.0 132.0 L680.0 126.0 L690.0 119.9 L700.0 113.8 L710.0 107.6 L720.0 101.6 L730.0 95.7 L740.0 90.0 L750.0 84.7 L760.0 79.7 L770.0 75.1 L780.0 71.1 L790.0 67.5 L800.0 64.6 L810.0 62.2 L820.0 60.5 L830.0 59.4 L840.0 59.0 L850.0 59.3 L860.0 60.2 L870.0 61.9 L880.0 64.1 L890.0 67.0 L900.0 70.4 L910.0 74.4 L920.0 78.9 L930.0 83.8 L940.0 89.1 L950.0 94.7 L960.0 100.6 L970.0 106.6 L980.0 112.7 L990.0 118.9 L1000.0 125.0 L1010.0 131.0 L1020.0 136.8 L1030.0 142.3 L1040.0 147.5 L1050.0 152.3 L1060.0 156.7 L1070.0 160.5 L1080.0 163.8 L1090.0 166.5 L1100.0 168.6 L1110.0 170.1 L1120.0 170.9 L1130.0 171.0 L1140.0 170.4 L1150.0 169.2 L1160.0 167.3 L1170.0 164.7 L1180.0 161.6 L1190.0 157.9 L1200.0 153.7" fill="none" stroke="#C4D4A6" stroke-width="11" stroke-linecap="round" stroke-linejoin="round" opacity="0.97"></path>
<path d="M0.0 162.7 L10.0 159.6 L20.0 155.9 L30.0 151.6 L40.0 147.0 L50.0 141.9 L60.0 136.4 L70.0 130.7 L80.0 124.8 L90.0 118.7 L100.0 112.6 L110.0 106.4 L120.0 100.3 L130.0 94.4 L140.0 88.8 L150.0 83.4 L160.0 78.3 L170.0 73.7 L180.0 69.6 L190.0 66.0 L200.0 62.9 L210.0 60.5 L220.0 58.7 L230.0 57.5 L240.0 57.0 L250.0 57.2 L260.0 58.1 L270.0 59.6 L280.0 61.8 L290.0 64.6 L300.0 68.0 L310.0 71.9 L320.0 76.3 L330.0 81.2 L340.0 86.4 L350.0 92.0 L360.0 97.8 L370.0 103.8 L380.0 109.9 L390.0 116.1 L400.0 122.2 L410.0 128.2 L420.0 134.0 L430.0 139.6 L440.0 144.8 L450.0 149.7 L460.0 154.1 L470.0 158.0 L480.0 161.4 L490.0 164.2 L500.0 166.4 L510.0 167.9 L520.0 168.8 L530.0 169.0 L540.0 168.5 L550.0 167.3 L560.0 165.5 L570.0 163.1 L580.0 160.0 L590.0 156.4 L600.0 152.3 L610.0 147.7 L620.0 142.6 L630.0 137.2 L640.0 131.5 L650.0 125.6 L660.0 119.6 L670.0 113.4 L680.0 107.3 L690.0 101.2 L700.0 95.3 L710.0 89.5 L720.0 84.1 L730.0 79.0 L740.0 74.3 L750.0 70.1 L760.0 66.4 L770.0 63.3 L780.0 60.8 L790.0 58.9 L800.0 57.6 L810.0 57.0 L820.0 57.1 L830.0 57.9 L840.0 59.3 L850.0 61.4 L860.0 64.1 L870.0 67.4 L880.0 71.3 L890.0 75.6 L900.0 80.4 L910.0 85.6 L920.0 91.2 L930.0 97.0 L940.0 102.9 L950.0 109.1 L960.0 115.2 L970.0 121.3 L980.0 127.4 L990.0 133.2 L1000.0 138.8 L1010.0 144.1 L1020.0 149.0 L1030.0 153.5 L1040.0 157.5 L1050.0 161.0 L1060.0 163.9 L1070.0 166.1 L1080.0 167.7 L1090.0 168.7 L1100.0 169.0 L1110.0 168.6 L1120.0 167.6 L1130.0 165.8 L1140.0 163.5 L1150.0 160.5 L1160.0 157.0 L1170.0 152.9 L1180.0 148.4 L1190.0 143.4 L1200.0 138.0" fill="none" stroke="#C8DCA0" stroke-width="5" stroke-linecap="round" stroke-linejoin="round" opacity="0.97"></path>
</svg>