<svg xmlns="http://www.w3.org/2000/svg" viewBox="0 0 1200 240" preserveAspectRatio="xMidYMid slice" role="img" aria-label="Virtuous Cycle ribbon motif">
<path d="M0.0 88.0 L15.0 94.3 L30.0 100.4 L45.0 106.2 L60.0 111.5 L75.0 116.3 L90.0 120.4 L105.0 123.6 L120.0 126.0 L135.0 127.5 L150.0 128.0 L165.0 127.5 L180.0 126.0 L195.0 123.6 L210.0 120.4 L225.0 116.3 L240.0 111.5 L255.0 106.2 L270.0 100.4 L285.0 94.3 L300.0 88.0 L315.0 81.7 L330.0 75.6 L345.0 69.8 L360.0 64.5 L375.0 59.7 L390.0 55.6 L405.0 52.4 L420.0 50.0 L435.0 48.5 L450.0 48.0 L465.0 48.5 L480.0 50.0 L495.0 52.4 L510.0 55.6 L525.0 59.7 L540.0 64.5 L555.0 69.8 L570.0 75.6 L585.0 81.7 L600.0 88.0 L615.0 94.3 L630.0 100.4 L645.0 106.2 L660.0 111.5 L675.0 116.3 L690.0 120.4 L705.0 123.6 L720.0 126.0 L735.0 127.5 L750.0 128.0 L765.0 127.5 L780.0 126.0 L795.0 123.6 L810.0 120.4 L825.0 116.3 L840.0 111.5 L855.0 106.2 L870.0 100.4 L885.0 94.3 L900.0 88.0 L915.0 81.7 L930.0 75.6 L945.0 69.8 L960.0 64.5 L975.0 59.7 L990.0 55.6 L1005.0 52.4 L1020.0 50.0 L1035.0 48.5 L1050.0 48.0 L1065.0 48.5 L1080.0 50.0 L1095.0 52.4 L1110.0 55.6 L1125.0 59.7 L1140.0 64.5 L1155.0 69.8 L1170.0 75.6 L1185.0 81.7 L1200.0 88.0" fill="none" stroke="#CFE0A8" stroke-width="26" stroke-linecap="round" opacity="0.95"></path>
<path d="M0.0 123.9 L15.0 128.7 L30.0 132.9 L45.0 136.4 L60.0 139.1 L75.0 141.0 L90.0 141.9 L105.0 141.9 L120.0 140.9 L135.0 139.1 L150.0 136.4 L165.0 132.9 L180.0 128.7 L195.0 123.8 L210.0 118.5 L225.0 112.9 L240.0 107.0 L255.0 101.0 L270.0 95.1 L285.0 89.5 L300.0 84.1 L315.0 79.3 L330.0 75.1 L345.0 71.6 L360.0 68.9 L375.0 67.0 L390.0 66.1 L405.0 66.1 L420.0 67.1 L435.0 68.9 L450.0 71.6 L465.0 75.1 L480.0 79.3 L495.0 84.2 L510.0 89.5 L525.0 95.1 L540.0 101.0 L555.0 107.0 L570.0 112.9 L585.0 118.5 L600.0 123.9 L615.0 128.7 L630.0 132.9 L645.0 136.4 L660.0 139.1 L675.0 141.0 L690.0 141.9 L705.0 141.9 L720.0 140.9 L735.0 139.1 L750.0 136.4 L765.0 132.9 L780.0 128.7 L795.0 123.8 L810.0 118.5 L825.0 112.9 L840.0 107.0 L855.0 101.0 L870.0 95.1 L885.0 89.5 L900.0 84.1 L915.0 79.3 L930.0 75.1 L945.0 71.6 L960.0 68.9 L975.0 67.0 L990.0 66.1 L1005.0 66.1 L1020.0 67.1 L1035.0 68.9 L1050.0 71.6 L1065.0 75.1 L1080.0 79.3 L1095.0 84.2 L1110.0 89.5 L1125.0 95.1 L1140.0 101.0 L1155.0 107.0 L1170.0 112.9 L1185.0 118.5 L1200.0 123.9" fill="none" stroke="#9DC65A" stroke-width="24.5" stroke-linecap="round" opacity="0.8899999999999999"></path>
<path d="M0.0 152.1 L15.0 154.2 L30.0 155.6 L45.0 156.0 L60.0 155.6 L75.0 154.2 L90.0 152.1 L105.0 149.1 L120.0 145.4 L135.0 141.1 L150.0 136.3 L165.0 131.1 L180.0 125.6 L195.0 120.0 L210.0 114.4 L225.0 108.9 L240.0 103.6 L255.0 98.8 L270.0 94.5 L285.0 90.9 L300.0 87.9 L315.0 85.8 L330.0 84.4 L345.0 84.0 L360.0 84.4 L375.0 85.8 L390.0 87.9 L405.0 90.9 L420.0 94.6 L435.0 98.9 L450.0 103.7 L465.0 108.9 L480.0 114.4 L495.0 120.0 L510.0 125.6 L525.0 131.1 L540.0 136.4 L555.0 141.2 L570.0 145.5 L585.0 149.1 L600.0 152.1 L615.0 154.2 L630.0 155.6 L645.0 156.0 L660.0 155.6 L675.0 154.2 L690.0 152.1 L705.0 149.1 L720.0 145.4 L735.0 141.1 L750.0 136.3 L765.0 131.1 L780.0 125.6 L795.0 120.0 L810.0 114.4 L825.0 108.9 L840.0 103.6 L855.0 98.8 L870.0 94.5 L885.0 90.9 L900.0 87.9 L915.0 85.8 L930.0 84.4 L945.0 84.0 L960.0 84.4 L975.0 85.8 L990.0 87.9 L1005.0 90.9 L1020.0 94.6 L1035.0 98.9 L1050.0 103.7 L1065.0 108.9 L1080.0 114.4 L1095.0 120.0 L1110.0 125.6 L1125.0 131.1 L1140.0 136.4 L1155.0 141.2 L1170.0 145.5 L1185.0 149.1 L1200.0 152.1" fill="none" stroke="#6E9E10" stroke-width="23" stroke-linecap="round" opacity="0.83"></path>
<path d="M0.0 169.9 L15.0 169.1 L30.0 167.4 L45.0 165.0 L60.0 161.8 L75.0 158.1 L90.0 153.7 L105.0 149.0 L120.0 143.9 L135.0 138.6 L150.0 133.3 L165.0 128.0 L180.0 123.0 L195.0 118.2 L210.0 113.9 L225.0 110.1 L240.0 107.0 L255.0 104.6 L270.0 102.9 L285.0 102.1 L300.0 102.1 L315.0 102.9 L330.0 104.6 L345.0 107.0 L360.0 110.2 L375.0 113.9 L390.0 118.3 L405.0 123.0 L420.0 128.1 L435.0 133.4 L450.0 138.7 L465.0 144.0 L480.0 149.0 L495.0 153.8 L510.0 158.1 L525.0 161.9 L540.0 165.0 L555.0 167.4 L570.0 169.1 L585.0 169.9 L600.0 169.9 L615.0 169.1 L630.0 167.4 L645.0 165.0 L660.0 161.8 L675.0 158.1 L690.0 153.7 L705.0 149.0 L720.0 143.9 L735.0 138.6 L750.0 133.3 L765.0 128.0 L780.0 123.0 L795.0 118.2 L810.0 113.9 L825.0 110.1 L840.0 107.0 L855.0 104.6 L870.0 102.9 L885.0 102.1 L900.0 102.1 L915.0 102.9 L930.0 104.6 L945.0 107.0 L960.0 110.2 L975.0 113.9 L990.0 118.3 L1005.0 123.0 L1020.0 128.1 L1035.0 133.4 L1050.0 138.7 L1065.0 144.0 L1080.0 149.0 L1095.0 153.8 L1110.0 158.1 L1125.0 161.9 L1140.0 165.0 L1155.0 167.4 L1170.0 169.1 L1185.0 169.9 L1200.0 169.9" fill="none" stroke="#4F7510" stroke-width="21.5" stroke-linecap="round" opacity="0.77"></path>
<path d="M0.0 177.9 L15.0 174.6 L30.0 170.8 L45.0 166.5 L60.0 161.9 L75.0 157.0 L90.0 152.0 L105.0 147.0 L120.0 142.1 L135.0 137.4 L150.0 133.2 L165.0 129.4 L180.0 126.1 L195.0 123.5 L210.0 121.6 L225.0 120.4 L240.0 120.0 L255.0 120.4 L270.0 121.6 L285.0 123.5 L300.0 126.1 L315.0 129.4 L330.0 133.2 L345.0 137.5 L360.0 142.1 L375.0 147.0 L390.0 152.0 L405.0 157.0 L420.0 161.9 L435.0 166.6 L450.0 170.8 L465.0 174.6 L480.0 177.9 L495.0 180.5 L510.0 182.4 L525.0 183.6 L540.0 184.0 L555.0 183.6 L570.0 182.4 L585.0 180.5 L600.0 177.9 L615.0 174.6 L630.0 170.8 L645.0 166.5 L660.0 161.9 L675.0 157.0 L690.0 152.0 L705.0 147.0 L720.0 142.1 L735.0 137.4 L750.0 133.2 L765.0 129.4 L780.0 126.1 L795.0 123.5 L810.0 121.6 L825.0 120.4 L840.0 120.0 L855.0 120.4 L870.0 121.6 L885.0 123.5 L900.0 126.1 L915.0 129.4 L930.0 133.2 L945.0 137.5 L960.0 142.1 L975.0 147.0 L990.0 152.0 L1005.0 157.0 L1020.0 161.9 L1035.0 166.6 L1050.0 170.8 L1065.0 174.6 L1080.0 177.9 L1095.0 180.5 L1110.0 182.4 L1125.0 183.6 L1140.0 184.0 L1155.0 183.6 L1170.0 182.4 L1185.0 180.5 L1200.0 177.9" fill="none" stroke="#2F4A0C" stroke-width="20" stroke-linecap="round" opacity="0.71"></path>
</svg>